G04 #@! TF.GenerationSoftware,KiCad,Pcbnew,9.0.0*
G04 #@! TF.CreationDate,2025-06-03T17:41:34-04:00*
G04 #@! TF.ProjectId,CBM2-MultiROM,43424d32-2d4d-4756-9c74-69524f4d2e6b,rev?*
G04 #@! TF.SameCoordinates,Original*
G04 #@! TF.FileFunction,Copper,L2,Bot*
G04 #@! TF.FilePolarity,Positive*
%FSLAX46Y46*%
G04 Gerber Fmt 4.6, Leading zero omitted, Abs format (unit mm)*
G04 Created by KiCad (PCBNEW 9.0.0) date 2025-06-03 17:41:34*
%MOMM*%
%LPD*%
G01*
G04 APERTURE LIST*
G04 Aperture macros list*
%AMRoundRect*
0 Rectangle with rounded corners*
0 $1 Rounding radius*
0 $2 $3 $4 $5 $6 $7 $8 $9 X,Y pos of 4 corners*
0 Add a 4 corners polygon primitive as box body*
4,1,4,$2,$3,$4,$5,$6,$7,$8,$9,$2,$3,0*
0 Add four circle primitives for the rounded corners*
1,1,$1+$1,$2,$3*
1,1,$1+$1,$4,$5*
1,1,$1+$1,$6,$7*
1,1,$1+$1,$8,$9*
0 Add four rect primitives between the rounded corners*
20,1,$1+$1,$2,$3,$4,$5,0*
20,1,$1+$1,$4,$5,$6,$7,0*
20,1,$1+$1,$6,$7,$8,$9,0*
20,1,$1+$1,$8,$9,$2,$3,0*%
G04 Aperture macros list end*
G04 #@! TA.AperFunction,ComponentPad*
%ADD10RoundRect,0.250000X-0.550000X-0.550000X0.550000X-0.550000X0.550000X0.550000X-0.550000X0.550000X0*%
G04 #@! TD*
G04 #@! TA.AperFunction,ComponentPad*
%ADD11C,1.600000*%
G04 #@! TD*
G04 #@! TA.AperFunction,ComponentPad*
%ADD12RoundRect,0.250000X0.550000X-0.550000X0.550000X0.550000X-0.550000X0.550000X-0.550000X-0.550000X0*%
G04 #@! TD*
G04 #@! TA.AperFunction,ComponentPad*
%ADD13R,1.600000X1.600000*%
G04 #@! TD*
G04 #@! TA.AperFunction,ComponentPad*
%ADD14O,1.600000X1.600000*%
G04 #@! TD*
G04 #@! TA.AperFunction,ComponentPad*
%ADD15C,1.400000*%
G04 #@! TD*
G04 #@! TA.AperFunction,ComponentPad*
%ADD16O,1.400000X1.400000*%
G04 #@! TD*
G04 #@! TA.AperFunction,ComponentPad*
%ADD17R,1.422400X1.422400*%
G04 #@! TD*
G04 #@! TA.AperFunction,ComponentPad*
%ADD18C,1.422400*%
G04 #@! TD*
G04 #@! TA.AperFunction,ViaPad*
%ADD19C,0.600000*%
G04 #@! TD*
G04 #@! TA.AperFunction,Conductor*
%ADD20C,0.300000*%
G04 #@! TD*
G04 APERTURE END LIST*
D10*
X103581200Y-81229200D03*
D11*
X103581200Y-83769200D03*
X103581200Y-86309199D03*
X103581200Y-88849200D03*
X103581200Y-91389200D03*
X103581200Y-93929200D03*
X111201200Y-93929200D03*
X111201200Y-91389200D03*
X111201200Y-88849200D03*
X111201200Y-86309200D03*
X111201200Y-83769200D03*
X111201200Y-81229200D03*
D12*
X114585750Y-95192850D03*
D11*
X117125750Y-95192850D03*
X119665750Y-95192850D03*
X122205750Y-95192850D03*
X124745750Y-95192850D03*
X127285750Y-95192850D03*
X129825750Y-95192850D03*
X132365750Y-95192850D03*
X134905750Y-95192850D03*
X137445750Y-95192850D03*
X139985750Y-95192850D03*
X142525750Y-95192850D03*
X142525750Y-79952850D03*
X139985750Y-79952850D03*
X137445750Y-79952850D03*
X134905750Y-79952850D03*
X132365750Y-79952850D03*
X129825750Y-79952850D03*
X127285750Y-79952850D03*
X124745750Y-79952850D03*
X122205750Y-79952850D03*
X119665750Y-79952850D03*
X117125750Y-79952850D03*
X114585750Y-79952850D03*
D13*
X116306600Y-82448400D03*
D14*
X116306600Y-84988400D03*
X116306600Y-87528400D03*
X116306600Y-90068400D03*
X116306600Y-92608400D03*
D15*
X113563400Y-82575401D03*
D16*
X113563400Y-87655400D03*
D17*
X123545599Y-86309200D03*
D18*
X121005599Y-88849200D03*
X123545599Y-88849200D03*
X121005599Y-91389200D03*
X123545599Y-93929200D03*
X123545599Y-91389199D03*
X126085599Y-93929200D03*
X126085599Y-91389200D03*
X128625599Y-93929200D03*
X128625599Y-91389200D03*
X131165599Y-93929200D03*
X131165599Y-91389200D03*
X133705599Y-93929200D03*
X136245600Y-91389200D03*
X133705598Y-91389200D03*
X136245599Y-88849200D03*
X133705599Y-88849200D03*
X136245599Y-86309200D03*
X133705599Y-86309200D03*
X136245599Y-83769200D03*
X133705598Y-81229200D03*
X133705599Y-83769200D03*
X131165599Y-81229200D03*
X131165599Y-83769200D03*
X128625599Y-81229200D03*
X128625599Y-83769200D03*
X126085599Y-81229200D03*
X126085599Y-83769200D03*
X123545599Y-81229201D03*
X121005599Y-83769200D03*
X123545599Y-83769200D03*
X121005599Y-86309200D03*
D19*
X118034800Y-85826600D03*
X110109000Y-82931000D03*
X121561323Y-93279110D03*
X118033800Y-89418400D03*
X124866400Y-87376000D03*
D20*
X127507999Y-92811600D02*
X128625599Y-93929200D01*
X125628400Y-92811600D02*
X127507999Y-92811600D01*
X124745750Y-93694250D02*
X125628400Y-92811600D01*
X124745750Y-95192850D02*
X124745750Y-93694250D01*
X136245599Y-81292699D02*
X134905750Y-79952850D01*
X136245599Y-83769200D02*
X136245599Y-81292699D01*
X137445750Y-84499450D02*
X137445750Y-79952850D01*
X136906000Y-85039200D02*
X137445750Y-84499450D01*
X134975599Y-85039200D02*
X136906000Y-85039200D01*
X133705599Y-86309200D02*
X134975599Y-85039200D01*
X125780800Y-91389200D02*
X126085599Y-91389200D01*
X124485400Y-92684600D02*
X125780800Y-91389200D01*
X122885200Y-92684600D02*
X124485400Y-92684600D01*
X122205750Y-93364050D02*
X122885200Y-92684600D01*
X122205750Y-95192850D02*
X122205750Y-93364050D01*
X119665750Y-94974650D02*
X119665750Y-95192850D01*
X121561323Y-93279110D02*
X121361290Y-93279110D01*
X121361290Y-93279110D02*
X119665750Y-94974650D01*
X124841000Y-87528400D02*
X116306600Y-87528400D01*
X124866400Y-87376000D02*
X124866400Y-87503000D01*
X124866400Y-87503000D02*
X124841000Y-87528400D01*
X110464599Y-82575401D02*
X113563400Y-82575401D01*
X110109000Y-82931000D02*
X110464599Y-82575401D01*
X118338600Y-89128600D02*
X118618000Y-88849200D01*
X118618000Y-88849200D02*
X121005599Y-88849200D01*
X118033800Y-89418400D02*
X118323600Y-89128600D01*
X118323600Y-89128600D02*
X118338600Y-89128600D01*
X118541800Y-86309200D02*
X121005599Y-86309200D01*
X118034800Y-85826600D02*
X118441200Y-86233000D01*
X118441200Y-86233000D02*
X118465600Y-86233000D01*
X118465600Y-86233000D02*
X118541800Y-86309200D01*
X135026399Y-87528400D02*
X139446000Y-87528400D01*
X142525750Y-84448650D02*
X142525750Y-79952850D01*
X139446000Y-87528400D02*
X142525750Y-84448650D01*
X133705599Y-88849200D02*
X135026399Y-87528400D01*
X117125750Y-95192850D02*
X119690400Y-92628200D01*
X119690400Y-92628200D02*
X122233080Y-92628200D01*
X123472081Y-91389199D02*
X123545599Y-91389199D01*
X122233080Y-92628200D02*
X123472081Y-91389199D01*
X136245599Y-86309200D02*
X137845800Y-86309200D01*
X137845800Y-86309200D02*
X139985750Y-84169250D01*
X139985750Y-84169250D02*
X139985750Y-79952850D01*
X132365750Y-79952850D02*
X132429248Y-79952850D01*
X132429248Y-79952850D02*
X133705598Y-81229200D01*
X128625599Y-81229200D02*
X128625599Y-81153001D01*
X128625599Y-81153001D02*
X129825750Y-79952850D01*
X133705598Y-91389200D02*
X135788398Y-93472000D01*
X135788398Y-93472000D02*
X139014200Y-93472000D01*
X139014200Y-93472000D02*
X139985750Y-94443550D01*
X139985750Y-94443550D02*
X139985750Y-95192850D01*
X119621300Y-82448400D02*
X117125750Y-79952850D01*
X126085599Y-81229200D02*
X124866399Y-82448400D01*
X124866399Y-82448400D02*
X119621300Y-82448400D01*
X113563400Y-85064600D02*
X113563400Y-87655400D01*
X121005599Y-83769200D02*
X114858800Y-83769200D01*
X113563400Y-89027000D02*
X113563400Y-87655400D01*
X111201200Y-91389200D02*
X113563400Y-89027000D01*
X114858800Y-83769200D02*
X113563400Y-85064600D01*
X126085599Y-83769200D02*
X124866399Y-84988400D01*
X124866399Y-84988400D02*
X116306600Y-84988400D01*
X122326399Y-90068400D02*
X116306600Y-90068400D01*
X123545599Y-88849200D02*
X122326399Y-90068400D01*
M02*
