M48
; DRILL file {KiCad 9.0.0} date 2025-06-03T17:41:37-0400
; FORMAT={-:-/ absolute / inch / decimal}
; #@! TF.CreationDate,2025-06-03T17:41:37-04:00
; #@! TF.GenerationSoftware,Kicad,Pcbnew,9.0.0
; #@! TF.FileFunction,Plated,1,2,PTH
FMAT,2
INCH
; #@! TA.AperFunction,Plated,PTH,ViaDrill
T1C0.0157
; #@! TA.AperFunction,Plated,PTH,ComponentDrill
T2C0.0276
; #@! TA.AperFunction,Plated,PTH,ComponentDrill
T3C0.0315
%
G90
G05
T1
X4.335Y-3.265
X4.647Y-3.5204
X4.647Y-3.379
X4.7859Y-3.6724
X4.916Y-3.44
T2
X4.471Y-3.251
X4.471Y-3.451
T3
X4.078Y-3.198
X4.078Y-3.298
X4.078Y-3.398
X4.078Y-3.498
X4.078Y-3.598
X4.078Y-3.698
X4.378Y-3.198
X4.378Y-3.298
X4.378Y-3.398
X4.378Y-3.498
X4.378Y-3.598
X4.378Y-3.698
X4.5112Y-3.1477
X4.5112Y-3.7477
X4.579Y-3.246
X4.579Y-3.346
X4.579Y-3.446
X4.579Y-3.546
X4.579Y-3.646
X4.6113Y-3.1477
X4.6113Y-3.7477
X4.7112Y-3.1477
X4.7112Y-3.7477
X4.764Y-3.298
X4.764Y-3.398
X4.764Y-3.498
X4.764Y-3.598
X4.8113Y-3.1477
X4.8113Y-3.7477
X4.864Y-3.198
X4.864Y-3.298
X4.864Y-3.398
X4.864Y-3.498
X4.864Y-3.598
X4.864Y-3.698
X4.9112Y-3.1477
X4.9112Y-3.7477
X4.964Y-3.198
X4.964Y-3.298
X4.964Y-3.598
X4.964Y-3.698
X5.0112Y-3.1477
X5.0112Y-3.7477
X5.064Y-3.198
X5.064Y-3.298
X5.064Y-3.598
X5.064Y-3.698
X5.1113Y-3.1477
X5.1113Y-3.7477
X5.164Y-3.198
X5.164Y-3.298
X5.164Y-3.598
X5.164Y-3.698
X5.2112Y-3.1477
X5.2112Y-3.7477
X5.264Y-3.198
X5.264Y-3.598
X5.264Y-3.298
X5.264Y-3.398
X5.264Y-3.498
X5.264Y-3.698
X5.3113Y-3.1477
X5.3113Y-3.7477
X5.364Y-3.298
X5.364Y-3.398
X5.364Y-3.498
X5.364Y-3.598
X5.4112Y-3.1477
X5.4112Y-3.7477
X5.5112Y-3.1477
X5.5112Y-3.7477
X5.6113Y-3.1477
X5.6113Y-3.7477
M30
